<svg width="50" height="50" viewBox="0 0 50 50" fill="none" xmlns="http://www.w3.org/2000/svg">
<path fill-rule="evenodd" clip-rule="evenodd" d="M25 50C38.8071 50 50 38.8071 50 25C50 11.1929 38.8071 0 25 0C11.1929 0 0 11.1929 0 25C0 38.8071 11.1929 50 25 50ZM24.3891 21.1622H27.296C29.7944 21.1622 31.9565 21.7228 33.7823 22.8439C35.6241 23.965 36.9934 25.4304 37.8903 27.2401C38.7872 29.0339 39.2356 31.0439 39.2356 33.27C39.2356 34.9517 38.9233 36.5212 38.2987 37.9786C37.6901 39.436 36.8092 40.7173 35.6561 41.8224C34.519 42.9275 33.0616 43.8003 31.2839 44.4409C29.5221 45.0655 27.5442 45.3778 25.3501 45.3778C22.5473 45.3778 19.9128 44.9775 17.4464 44.1767C14.996 43.3599 12.954 42.2148 11.3204 40.7413L9.92702 41.7743C11.7208 43.456 13.963 44.7612 16.6536 45.6901C19.3602 46.6351 22.259 47.1075 25.3501 47.1075C27.32 47.1075 29.1458 46.8673 30.8274 46.3868C32.5251 45.9224 33.9825 45.2737 35.1997 44.4409C36.4329 43.5921 37.4819 42.5911 38.3467 41.438C39.2276 40.2849 39.8842 39.0196 40.3167 37.6423C40.7491 36.2649 40.9653 34.8075 40.9653 33.27C40.9653 31.3802 40.669 29.6105 40.0764 27.9608C39.4839 26.2952 38.627 24.8298 37.5059 23.5646C36.3848 22.2833 34.9514 21.2743 33.2057 20.5376C31.476 19.8009 29.5301 19.4325 27.368 19.4325H24.3891C23.7005 19.4325 23.228 19.2804 22.9717 18.9761C22.7155 18.6718 22.5874 18.2474 22.5874 17.7028C22.5874 17.1583 22.8196 16.7339 23.284 16.4296C23.7645 16.1253 24.6934 15.9732 26.0708 15.9732C28.8895 15.9732 30.8594 16.2294 31.9805 16.7419L33.3739 15.6849C31.7403 14.7239 29.3059 14.2435 26.0708 14.2435C22.6274 14.2435 20.9057 15.3966 20.9057 17.7028C20.9057 18.7439 21.178 19.5847 21.7225 20.2253C22.2671 20.8499 23.1559 21.1622 24.3891 21.1622ZM27.1278 22.8919H24.3891C22.5153 22.8919 21.162 22.4194 20.3292 21.4745C19.5124 20.5296 19.104 19.2724 19.104 17.7028C19.104 16.1493 19.6565 14.9001 20.7616 13.9552C21.8827 12.9942 23.6524 12.5138 26.0708 12.5138C29.8184 12.5138 32.6932 13.2025 34.6952 14.5798L36.0645 13.5228C34.9274 12.6419 33.486 11.9692 31.7403 11.5048C29.9946 11.0243 28.1048 10.7841 26.0708 10.7841C23.1719 10.7841 20.9938 11.4247 19.5364 12.706C18.095 13.9872 17.3743 15.6528 17.3743 17.7028C17.3743 19.7528 17.9589 21.4185 19.128 22.6997C20.2971 23.981 22.0508 24.6216 24.3891 24.6216H27.1038C29.8905 24.6216 32.0286 25.4384 33.518 27.072C35.0235 28.7056 35.7762 30.7716 35.7762 33.27C35.7762 35.8005 34.8794 37.8745 33.0856 39.4921C31.3079 41.1097 28.7294 41.9185 25.3501 41.9185C23.0598 41.9185 20.9137 41.6222 18.9118 41.0296C16.9258 40.437 15.2762 39.6042 13.963 38.5312L12.6176 39.6122C14.0911 40.8935 15.9409 41.8864 18.1671 42.5911C20.3932 43.2958 22.7876 43.6482 25.3501 43.6482C29.1938 43.6482 32.1807 42.6712 34.3108 40.7173C36.4409 38.7474 37.5059 36.2649 37.5059 33.27C37.5059 30.3232 36.585 27.8567 34.7432 25.8708C32.9174 23.8849 30.379 22.8919 27.1278 22.8919ZM27.0317 26.3513H24.3891C21.5704 26.3513 19.4083 25.5425 17.9028 23.9249C16.3973 22.2913 15.6446 20.2173 15.6446 17.7028C15.6446 15.1724 16.5335 13.0983 18.3112 11.4808C20.1049 9.86319 22.6915 9.0544 26.0708 9.0544C28.361 9.0544 30.4991 9.35069 32.485 9.94327C34.471 10.5358 36.1206 11.3687 37.4339 12.4417L38.7792 11.3607C37.3057 10.0794 35.4559 9.08644 33.2298 8.38175C31.0196 7.67706 28.6333 7.32472 26.0708 7.32472C22.227 7.32472 19.2401 8.30968 17.11 10.2796C14.9799 12.2335 13.9149 14.7079 13.9149 17.7028C13.9149 20.6978 14.8358 23.1802 16.6776 25.1501C18.5354 27.104 21.1059 28.081 24.3891 28.081H27.0077C28.8815 28.081 30.2348 28.5614 31.0676 29.5224C31.9005 30.4673 32.3169 31.7165 32.3169 33.27C32.3169 34.8235 31.7563 36.0808 30.6352 37.0417C29.5301 37.9866 27.7684 38.4591 25.3501 38.4591C21.5864 38.4591 18.7036 37.7704 16.7016 36.3931L15.3323 37.4501C16.4694 38.331 17.9108 39.0116 19.6565 39.4921C21.4182 39.9566 23.3161 40.1888 25.3501 40.1888C28.2489 40.1888 30.419 39.5482 31.8604 38.2669C33.3178 36.9857 34.0465 35.32 34.0465 33.27C34.0465 31.2521 33.462 29.5944 32.2928 28.2972C31.1237 26.9999 29.37 26.3513 27.0317 26.3513ZM27.0317 29.8107H24.3891C21.8266 29.8107 19.6085 29.2661 17.7346 28.1771C15.8608 27.072 14.4674 25.6146 13.5546 23.8048C12.6417 21.995 12.1852 19.961 12.1852 17.7028C12.1852 16.0212 12.4895 14.4517 13.0981 12.9942C13.7227 11.5368 14.6036 10.2556 15.7407 9.1505C16.8938 8.04542 18.3512 7.18058 20.113 6.55597C21.8907 5.91534 23.8766 5.59503 26.0708 5.59503C28.8735 5.59503 31.5001 6.00343 33.9505 6.82022C36.4008 7.62101 38.4428 8.75811 40.0764 10.2316L41.4698 9.19854C39.676 7.5169 37.4339 6.21163 34.7432 5.28272C32.0526 4.3378 29.1618 3.86534 26.0708 3.86534C24.1008 3.86534 22.2671 4.10558 20.5694 4.58604C18.8878 5.0505 17.4303 5.70714 16.1971 6.55597C14.9799 7.38878 13.9309 8.38175 13.0501 9.53487C12.1852 10.688 11.5366 11.9532 11.1042 13.3306C10.6717 14.7079 10.4555 16.1653 10.4555 17.7028C10.4555 19.6247 10.7598 21.4185 11.3684 23.0841C11.977 24.7497 12.8499 26.2151 13.987 27.4804C15.1401 28.7456 16.6055 29.7386 18.3833 30.4593C20.177 31.18 22.179 31.5403 24.3891 31.5403H26.9837C27.6883 31.5403 28.1688 31.7005 28.4251 32.0208C28.6973 32.3251 28.8335 32.7415 28.8335 33.27C28.8335 33.8146 28.5932 34.239 28.1128 34.5433C27.6483 34.8476 26.7274 34.9997 25.3501 34.9997C22.5153 34.9997 20.5374 34.7435 19.4163 34.231L18.0229 35.288C19.6565 36.2489 22.0989 36.7294 25.3501 36.7294C28.7934 36.7294 30.5151 35.5763 30.5151 33.27C30.5151 32.245 30.2428 31.4122 29.6983 30.7716C29.1538 30.131 28.2649 29.8107 27.0317 29.8107Z" fill="#2CB1BC"/>
</svg>
