<svg width="50" height="50" viewBox="0 0 50 50" fill="none" xmlns="http://www.w3.org/2000/svg">
<path d="M50 24.9999C50 38.807 38.8071 49.9999 25 49.9999C11.1929 49.9999 0 38.807 0 24.9999C0 11.1928 11.1929 -0.00012207 25 -0.00012207C38.8071 -0.00012207 50 11.1928 50 24.9999Z" fill="#0F7C9E"/>
<path d="M11.06 40.82C10.02 39.54 9.5 38.4 9.5 37.4C9.5 36.36 10.36 35 12.08 33.32C13.08 32.36 14.14 31.88 15.26 31.88C16.38 31.88 17.94 32.88 19.94 34.88C20.5 35.56 21.3 36.22 22.34 36.86C23.38 37.46 24.34 37.76 25.22 37.76C28.94 37.76 30.8 36.24 30.8 33.2C30.8 32.28 30.28 31.52 29.24 30.92C28.24 30.28 26.98 29.82 25.46 29.54C23.94 29.26 22.3 28.82 20.54 28.22C18.78 27.58 17.14 26.84 15.62 26C14.1 25.16 12.82 23.84 11.78 22.04C10.78 20.2 10.28 18 10.28 15.44C10.28 11.92 11.58 8.86 14.18 6.26C16.82 3.62 20.4 2.3 24.92 2.3C27.32 2.3 29.5 2.62 31.46 3.26C33.46 3.86 34.84 4.48 35.6 5.12L37.1 6.26C38.34 7.42 38.96 8.4 38.96 9.2C38.96 10 38.48 11.1 37.52 12.5C36.16 14.5 34.76 15.5 33.32 15.5C32.48 15.5 31.44 15.1 30.2 14.3C30.08 14.22 29.84 14.02 29.48 13.7C29.16 13.38 28.86 13.12 28.58 12.92C27.74 12.4 26.66 12.14 25.34 12.14C24.06 12.14 22.98 12.46 22.1 13.1C21.26 13.7 20.84 14.56 20.84 15.68C20.84 16.76 21.34 17.64 22.34 18.32C23.38 19 24.66 19.46 26.18 19.7C27.7 19.94 29.36 20.32 31.16 20.84C32.96 21.32 34.62 21.92 36.14 22.64C37.66 23.36 38.92 24.62 39.92 26.42C40.96 28.18 41.48 30.36 41.48 32.96C41.48 35.56 40.96 37.86 39.92 39.86C38.88 41.82 37.52 43.34 35.84 44.42C32.6 46.54 29.14 47.6 25.46 47.6C23.58 47.6 21.8 47.38 20.12 46.94C18.44 46.46 17.08 45.88 16.04 45.2C13.92 43.92 12.44 42.68 11.6 41.48L11.06 40.82Z" fill="white"/>
</svg>
